<mxfile host="app.diagrams.net" modified="2021-02-28T03:06:05.332Z" agent="5.0 (Windows NT 10.0; Win64; x64) AppleWebKit/537.36 (KHTML, like Gecko) Chrome/88.0.4324.190 Safari/537.36" etag="U8x35J1KWIPRz0FUREw8" version="14.4.2" type="github">
  <diagram id="R2lEEEUBdFMjLlhIrx00" name="Page-1">
    <mxGraphModel dx="1943" dy="1194" grid="1" gridSize="10" guides="1" tooltips="1" connect="1" arrows="1" fold="1" page="1" pageScale="1" pageWidth="850" pageHeight="1100" math="0" shadow="0" extFonts="Permanent Marker^https://fonts.googleapis.com/css?family=Permanent+Marker">
      <root>
        <mxCell id="0" />
        <mxCell id="1" parent="0" />
        <mxCell id="_SKopQ6SyjHU9LLutcFQ-7" value="&lt;span style=&quot;border-bottom: 1px dotted&quot;&gt;&lt;u&gt;FlightNum&lt;/u&gt;&lt;/span&gt;" style="ellipse;whiteSpace=wrap;html=1;align=center;" parent="1" vertex="1">
          <mxGeometry x="397" y="160" width="100" height="40" as="geometry" />
        </mxCell>
        <mxCell id="_SKopQ6SyjHU9LLutcFQ-15" value="" style="endArrow=none;html=1;entryX=0;entryY=1;entryDx=0;entryDy=0;exitX=0.5;exitY=0;exitDx=0;exitDy=0;" parent="1" source="_SKopQ6SyjHU9LLutcFQ-26" edge="1" target="_SKopQ6SyjHU9LLutcFQ-71">
          <mxGeometry width="50" height="50" relative="1" as="geometry">
            <mxPoint x="220" y="290" as="sourcePoint" />
            <mxPoint x="290" y="350" as="targetPoint" />
          </mxGeometry>
        </mxCell>
        <mxCell id="_SKopQ6SyjHU9LLutcFQ-16" value="&lt;u&gt;tailNumber&lt;/u&gt;" style="ellipse;whiteSpace=wrap;html=1;align=center;" parent="1" vertex="1">
          <mxGeometry x="110" y="385" width="100" height="40" as="geometry" />
        </mxCell>
        <mxCell id="_SKopQ6SyjHU9LLutcFQ-20" value="TypeAircraft" style="whiteSpace=wrap;html=1;align=center;" parent="1" vertex="1">
          <mxGeometry x="250" y="180" width="100" height="40" as="geometry" />
        </mxCell>
        <mxCell id="_SKopQ6SyjHU9LLutcFQ-22" value="&lt;u&gt;model&lt;/u&gt;" style="ellipse;whiteSpace=wrap;html=1;align=center;" parent="1" vertex="1">
          <mxGeometry x="90" y="180" width="100" height="40" as="geometry" />
        </mxCell>
        <mxCell id="_SKopQ6SyjHU9LLutcFQ-23" value="Manufacturer" style="ellipse;whiteSpace=wrap;html=1;align=center;" parent="1" vertex="1">
          <mxGeometry x="90" y="140" width="100" height="40" as="geometry" />
        </mxCell>
        <mxCell id="_SKopQ6SyjHU9LLutcFQ-24" value="" style="endArrow=none;html=1;exitX=1;exitY=0.5;exitDx=0;exitDy=0;entryX=0;entryY=0;entryDx=0;entryDy=0;" parent="1" source="_SKopQ6SyjHU9LLutcFQ-23" target="_SKopQ6SyjHU9LLutcFQ-20" edge="1">
          <mxGeometry width="50" height="50" relative="1" as="geometry">
            <mxPoint x="240" y="190" as="sourcePoint" />
            <mxPoint x="280" y="130" as="targetPoint" />
          </mxGeometry>
        </mxCell>
        <mxCell id="_SKopQ6SyjHU9LLutcFQ-25" value="" style="endArrow=none;html=1;entryX=0;entryY=0.5;entryDx=0;entryDy=0;exitX=1;exitY=0.5;exitDx=0;exitDy=0;" parent="1" source="_SKopQ6SyjHU9LLutcFQ-22" target="_SKopQ6SyjHU9LLutcFQ-20" edge="1">
          <mxGeometry width="50" height="50" relative="1" as="geometry">
            <mxPoint x="210" y="180" as="sourcePoint" />
            <mxPoint x="300" y="230" as="targetPoint" />
          </mxGeometry>
        </mxCell>
        <mxCell id="_SKopQ6SyjHU9LLutcFQ-26" value="&lt;span style=&quot;font-weight: 400&quot;&gt;startServiceDate&lt;/span&gt;" style="ellipse;whiteSpace=wrap;html=1;align=center;fontStyle=1" parent="1" vertex="1">
          <mxGeometry x="210" y="390" width="100" height="40" as="geometry" />
        </mxCell>
        <mxCell id="_SKopQ6SyjHU9LLutcFQ-28" value="" style="endArrow=none;html=1;entryX=0;entryY=1;entryDx=0;entryDy=0;exitX=1;exitY=0.5;exitDx=0;exitDy=0;" parent="1" target="_SKopQ6SyjHU9LLutcFQ-20" edge="1">
          <mxGeometry width="50" height="50" relative="1" as="geometry">
            <mxPoint x="190.00000000000273" y="240" as="sourcePoint" />
            <mxPoint x="250" y="230" as="targetPoint" />
          </mxGeometry>
        </mxCell>
        <mxCell id="_SKopQ6SyjHU9LLutcFQ-32" value="" style="ellipse;whiteSpace=wrap;html=1;" parent="1" vertex="1">
          <mxGeometry x="320" y="390" width="30" height="30" as="geometry" />
        </mxCell>
        <mxCell id="_SKopQ6SyjHU9LLutcFQ-34" value="" style="shape=link;html=1;exitX=0.425;exitY=0.999;exitDx=0;exitDy=0;entryX=0.5;entryY=0;entryDx=0;entryDy=0;width=-7.647058823529411;exitPerimeter=0;" parent="1" target="_SKopQ6SyjHU9LLutcFQ-32" edge="1">
          <mxGeometry width="100" relative="1" as="geometry">
            <mxPoint x="332.5" y="349.9599999999998" as="sourcePoint" />
            <mxPoint x="580" y="420" as="targetPoint" />
          </mxGeometry>
        </mxCell>
        <mxCell id="_SKopQ6SyjHU9LLutcFQ-35" value="" style="endArrow=none;html=1;exitX=1;exitY=1;exitDx=0;exitDy=0;entryX=0.5;entryY=0;entryDx=0;entryDy=0;" parent="1" source="_SKopQ6SyjHU9LLutcFQ-32" target="_SKopQ6SyjHU9LLutcFQ-40" edge="1">
          <mxGeometry width="50" height="50" relative="1" as="geometry">
            <mxPoint x="470" y="450" as="sourcePoint" />
            <mxPoint x="340" y="450" as="targetPoint" />
          </mxGeometry>
        </mxCell>
        <mxCell id="_SKopQ6SyjHU9LLutcFQ-36" value="" style="endArrow=none;html=1;entryX=0;entryY=1;entryDx=0;entryDy=0;exitX=0.5;exitY=0;exitDx=0;exitDy=0;" parent="1" source="_SKopQ6SyjHU9LLutcFQ-37" target="_SKopQ6SyjHU9LLutcFQ-32" edge="1">
          <mxGeometry width="50" height="50" relative="1" as="geometry">
            <mxPoint x="270" y="450" as="sourcePoint" />
            <mxPoint x="290" y="420" as="targetPoint" />
          </mxGeometry>
        </mxCell>
        <mxCell id="_SKopQ6SyjHU9LLutcFQ-37" value="Private" style="whiteSpace=wrap;html=1;align=center;" parent="1" vertex="1">
          <mxGeometry x="255" y="500" width="100" height="40" as="geometry" />
        </mxCell>
        <mxCell id="_SKopQ6SyjHU9LLutcFQ-40" value="Commercial" style="whiteSpace=wrap;html=1;align=center;" parent="1" vertex="1">
          <mxGeometry x="370" y="500" width="100" height="40" as="geometry" />
        </mxCell>
        <mxCell id="_SKopQ6SyjHU9LLutcFQ-41" value="" style="endArrow=none;html=1;exitX=0.5;exitY=1;exitDx=0;exitDy=0;entryX=0.5;entryY=0;entryDx=0;entryDy=0;" parent="1" source="_SKopQ6SyjHU9LLutcFQ-7" target="_SKopQ6SyjHU9LLutcFQ-72" edge="1">
          <mxGeometry width="50" height="50" relative="1" as="geometry">
            <mxPoint x="427" y="510" as="sourcePoint" />
            <mxPoint x="527" y="350" as="targetPoint" />
          </mxGeometry>
        </mxCell>
        <mxCell id="_SKopQ6SyjHU9LLutcFQ-42" value="" style="endArrow=none;html=1;entryX=0.5;entryY=1;entryDx=0;entryDy=0;exitX=0.5;exitY=0;exitDx=0;exitDy=0;" parent="1" source="_SKopQ6SyjHU9LLutcFQ-46" target="_SKopQ6SyjHU9LLutcFQ-37" edge="1">
          <mxGeometry width="50" height="50" relative="1" as="geometry">
            <mxPoint x="305" y="580" as="sourcePoint" />
            <mxPoint x="565" y="450" as="targetPoint" />
          </mxGeometry>
        </mxCell>
        <mxCell id="_SKopQ6SyjHU9LLutcFQ-43" value="" style="endArrow=none;html=1;entryX=0.75;entryY=1;entryDx=0;entryDy=0;exitX=0.5;exitY=0;exitDx=0;exitDy=0;" parent="1" source="_SKopQ6SyjHU9LLutcFQ-44" target="_SKopQ6SyjHU9LLutcFQ-40" edge="1">
          <mxGeometry width="50" height="50" relative="1" as="geometry">
            <mxPoint x="419.40999999999997" y="580" as="sourcePoint" />
            <mxPoint x="419.40999999999997" y="540" as="targetPoint" />
          </mxGeometry>
        </mxCell>
        <mxCell id="_SKopQ6SyjHU9LLutcFQ-44" value="&lt;span&gt;numFirstClass&lt;/span&gt;" style="ellipse;whiteSpace=wrap;html=1;align=center;" parent="1" vertex="1">
          <mxGeometry x="395" y="570" width="100" height="40" as="geometry" />
        </mxCell>
        <mxCell id="_SKopQ6SyjHU9LLutcFQ-46" value="ownerLName" style="ellipse;whiteSpace=wrap;html=1;align=center;" parent="1" vertex="1">
          <mxGeometry x="270" y="570" width="100" height="40" as="geometry" />
        </mxCell>
        <mxCell id="_SKopQ6SyjHU9LLutcFQ-47" value="" style="endArrow=none;html=1;entryX=0;entryY=1;entryDx=0;entryDy=0;exitX=0.5;exitY=0;exitDx=0;exitDy=0;" parent="1" source="_SKopQ6SyjHU9LLutcFQ-65" target="_SKopQ6SyjHU9LLutcFQ-37" edge="1">
          <mxGeometry width="50" height="50" relative="1" as="geometry">
            <mxPoint x="220" y="570" as="sourcePoint" />
            <mxPoint x="315" y="550" as="targetPoint" />
          </mxGeometry>
        </mxCell>
        <mxCell id="_SKopQ6SyjHU9LLutcFQ-50" value="AirlineCompany" style="whiteSpace=wrap;html=1;align=center;" parent="1" vertex="1">
          <mxGeometry x="90" y="310" width="100" height="40" as="geometry" />
        </mxCell>
        <mxCell id="_SKopQ6SyjHU9LLutcFQ-53" value="airline" style="ellipse;whiteSpace=wrap;html=1;align=center;" parent="1" vertex="1">
          <mxGeometry x="495" y="570" width="100" height="40" as="geometry" />
        </mxCell>
        <mxCell id="_SKopQ6SyjHU9LLutcFQ-54" value="" style="endArrow=none;html=1;entryX=0.75;entryY=1;entryDx=0;entryDy=0;exitX=0.5;exitY=0;exitDx=0;exitDy=0;" parent="1" source="_SKopQ6SyjHU9LLutcFQ-53" target="_SKopQ6SyjHU9LLutcFQ-40" edge="1">
          <mxGeometry width="50" height="50" relative="1" as="geometry">
            <mxPoint x="455" y="580" as="sourcePoint" />
            <mxPoint x="455" y="550" as="targetPoint" />
          </mxGeometry>
        </mxCell>
        <mxCell id="_SKopQ6SyjHU9LLutcFQ-55" value="" style="fontSize=12;html=1;endArrow=ERoneToMany;startArrow=ERzeroToOne;entryX=0;entryY=0.5;entryDx=0;entryDy=0;exitX=1;exitY=0.5;exitDx=0;exitDy=0;" parent="1" source="_SKopQ6SyjHU9LLutcFQ-50" edge="1" target="_SKopQ6SyjHU9LLutcFQ-71">
          <mxGeometry width="100" height="100" relative="1" as="geometry">
            <mxPoint x="20" y="590" as="sourcePoint" />
            <mxPoint x="290" y="330" as="targetPoint" />
          </mxGeometry>
        </mxCell>
        <mxCell id="_SKopQ6SyjHU9LLutcFQ-56" value="&lt;span&gt;CEO&lt;/span&gt;" style="ellipse;whiteSpace=wrap;html=1;align=center;" parent="1" vertex="1">
          <mxGeometry x="-60" y="350" width="100" height="40" as="geometry" />
        </mxCell>
        <mxCell id="_SKopQ6SyjHU9LLutcFQ-57" value="&lt;span&gt;city&lt;/span&gt;" style="ellipse;whiteSpace=wrap;html=1;align=center;" parent="1" vertex="1">
          <mxGeometry x="-60" y="310" width="100" height="40" as="geometry" />
        </mxCell>
        <mxCell id="_SKopQ6SyjHU9LLutcFQ-58" value="&lt;u&gt;name&lt;/u&gt;" style="ellipse;whiteSpace=wrap;html=1;align=center;" parent="1" vertex="1">
          <mxGeometry x="-60" y="270" width="100" height="40" as="geometry" />
        </mxCell>
        <mxCell id="_SKopQ6SyjHU9LLutcFQ-59" value="" style="endArrow=none;html=1;exitX=1;exitY=0.5;exitDx=0;exitDy=0;entryX=0;entryY=0;entryDx=0;entryDy=0;" parent="1" source="_SKopQ6SyjHU9LLutcFQ-58" edge="1">
          <mxGeometry width="50" height="50" relative="1" as="geometry">
            <mxPoint x="90" y="320" as="sourcePoint" />
            <mxPoint x="90" y="310" as="targetPoint" />
          </mxGeometry>
        </mxCell>
        <mxCell id="_SKopQ6SyjHU9LLutcFQ-60" value="" style="endArrow=none;html=1;entryX=0;entryY=0.5;entryDx=0;entryDy=0;exitX=1;exitY=0.5;exitDx=0;exitDy=0;" parent="1" source="_SKopQ6SyjHU9LLutcFQ-57" edge="1">
          <mxGeometry width="50" height="50" relative="1" as="geometry">
            <mxPoint x="60" y="310" as="sourcePoint" />
            <mxPoint x="90" y="330" as="targetPoint" />
          </mxGeometry>
        </mxCell>
        <mxCell id="_SKopQ6SyjHU9LLutcFQ-61" value="" style="endArrow=none;html=1;entryX=0;entryY=1;entryDx=0;entryDy=0;exitX=1;exitY=0.5;exitDx=0;exitDy=0;" parent="1" source="_SKopQ6SyjHU9LLutcFQ-56" edge="1">
          <mxGeometry width="50" height="50" relative="1" as="geometry">
            <mxPoint x="50" y="330" as="sourcePoint" />
            <mxPoint x="90" y="350" as="targetPoint" />
          </mxGeometry>
        </mxCell>
        <mxCell id="_SKopQ6SyjHU9LLutcFQ-64" value="&lt;span style=&quot;font-weight: 400&quot;&gt;numSeats&lt;/span&gt;" style="ellipse;whiteSpace=wrap;html=1;align=center;fontStyle=1" parent="1" vertex="1">
          <mxGeometry x="90" y="220" width="100" height="40" as="geometry" />
        </mxCell>
        <mxCell id="_SKopQ6SyjHU9LLutcFQ-65" value="ownerFName" style="ellipse;whiteSpace=wrap;html=1;align=center;" parent="1" vertex="1">
          <mxGeometry x="160" y="570" width="100" height="40" as="geometry" />
        </mxCell>
        <mxCell id="_SKopQ6SyjHU9LLutcFQ-69" value="" style="endArrow=none;html=1;entryX=0;entryY=1;entryDx=0;entryDy=0;exitX=0;exitY=0;exitDx=0;exitDy=0;" parent="1" source="_SKopQ6SyjHU9LLutcFQ-16" edge="1" target="_SKopQ6SyjHU9LLutcFQ-71">
          <mxGeometry width="50" height="50" relative="1" as="geometry">
            <mxPoint x="484.85447939615824" y="395.7744321365401" as="sourcePoint" />
            <mxPoint x="390" y="350" as="targetPoint" />
          </mxGeometry>
        </mxCell>
        <mxCell id="_SKopQ6SyjHU9LLutcFQ-71" value="Aircraft" style="shape=associativeEntity;whiteSpace=wrap;html=1;align=center;" parent="1" vertex="1">
          <mxGeometry x="270" y="310" width="100" height="40" as="geometry" />
        </mxCell>
        <mxCell id="_SKopQ6SyjHU9LLutcFQ-72" value="Trip" style="whiteSpace=wrap;html=1;align=center;" parent="1" vertex="1">
          <mxGeometry x="477" y="310" width="100" height="40" as="geometry" />
        </mxCell>
        <mxCell id="_SKopQ6SyjHU9LLutcFQ-73" value="" style="fontSize=12;html=1;endArrow=ERzeroToMany;startArrow=ERmandOne;entryX=0;entryY=0.5;entryDx=0;entryDy=0;exitX=1;exitY=0.5;exitDx=0;exitDy=0;" parent="1" source="_SKopQ6SyjHU9LLutcFQ-71" target="_SKopQ6SyjHU9LLutcFQ-72" edge="1">
          <mxGeometry width="100" height="100" relative="1" as="geometry">
            <mxPoint x="430" y="329.9999999999998" as="sourcePoint" />
            <mxPoint x="600" y="170" as="targetPoint" />
          </mxGeometry>
        </mxCell>
        <mxCell id="_SKopQ6SyjHU9LLutcFQ-74" value="&lt;span&gt;departAirport&lt;/span&gt;" style="ellipse;whiteSpace=wrap;html=1;align=center;" parent="1" vertex="1">
          <mxGeometry x="547" y="170" width="100" height="40" as="geometry" />
        </mxCell>
        <mxCell id="_SKopQ6SyjHU9LLutcFQ-75" value="arriveAirport" style="ellipse;whiteSpace=wrap;html=1;align=center;" parent="1" vertex="1">
          <mxGeometry x="357" y="240" width="100" height="40" as="geometry" />
        </mxCell>
        <mxCell id="_SKopQ6SyjHU9LLutcFQ-77" value="" style="endArrow=none;html=1;exitX=1;exitY=1;exitDx=0;exitDy=0;" parent="1" source="_SKopQ6SyjHU9LLutcFQ-75" edge="1">
          <mxGeometry width="50" height="50" relative="1" as="geometry">
            <mxPoint x="537" y="260" as="sourcePoint" />
            <mxPoint x="527" y="310" as="targetPoint" />
          </mxGeometry>
        </mxCell>
        <mxCell id="_SKopQ6SyjHU9LLutcFQ-78" value="" style="endArrow=none;html=1;exitX=0;exitY=1;exitDx=0;exitDy=0;entryX=0.5;entryY=0;entryDx=0;entryDy=0;" parent="1" source="_SKopQ6SyjHU9LLutcFQ-74" target="_SKopQ6SyjHU9LLutcFQ-72" edge="1">
          <mxGeometry width="50" height="50" relative="1" as="geometry">
            <mxPoint x="547" y="270" as="sourcePoint" />
            <mxPoint x="547" y="330" as="targetPoint" />
          </mxGeometry>
        </mxCell>
        <mxCell id="_SKopQ6SyjHU9LLutcFQ-79" value="" style="fontSize=12;html=1;endArrow=ERoneToMany;startArrow=ERoneToMany;exitX=1;exitY=0.5;exitDx=0;exitDy=0;entryX=0;entryY=0.5;entryDx=0;entryDy=0;" parent="1" source="_SKopQ6SyjHU9LLutcFQ-72" edge="1" target="_SKopQ6SyjHU9LLutcFQ-80">
          <mxGeometry width="100" height="100" relative="1" as="geometry">
            <mxPoint x="557" y="450" as="sourcePoint" />
            <mxPoint x="617" y="330" as="targetPoint" />
          </mxGeometry>
        </mxCell>
        <mxCell id="_SKopQ6SyjHU9LLutcFQ-80" value="Airport" style="whiteSpace=wrap;html=1;align=center;" parent="1" vertex="1">
          <mxGeometry x="737" y="310" width="100" height="40" as="geometry" />
        </mxCell>
        <mxCell id="_SKopQ6SyjHU9LLutcFQ-83" value="&lt;span&gt;city&lt;/span&gt;" style="ellipse;whiteSpace=wrap;html=1;align=center;" parent="1" vertex="1">
          <mxGeometry x="857" y="280" width="100" height="40" as="geometry" />
        </mxCell>
        <mxCell id="_SKopQ6SyjHU9LLutcFQ-84" value="&lt;u&gt;name&lt;/u&gt;" style="ellipse;whiteSpace=wrap;html=1;align=center;" parent="1" vertex="1">
          <mxGeometry x="797" y="240" width="100" height="40" as="geometry" />
        </mxCell>
        <mxCell id="_SKopQ6SyjHU9LLutcFQ-87" value="" style="endArrow=none;html=1;exitX=1;exitY=0;exitDx=0;exitDy=0;entryX=0;entryY=0.5;entryDx=0;entryDy=0;" parent="1" source="_SKopQ6SyjHU9LLutcFQ-80" target="_SKopQ6SyjHU9LLutcFQ-83" edge="1">
          <mxGeometry width="50" height="50" relative="1" as="geometry">
            <mxPoint x="957" y="280" as="sourcePoint" />
            <mxPoint x="1007" y="300" as="targetPoint" />
          </mxGeometry>
        </mxCell>
        <mxCell id="_SKopQ6SyjHU9LLutcFQ-88" value="" style="endArrow=none;html=1;entryX=0;entryY=1;entryDx=0;entryDy=0;exitX=0.5;exitY=0;exitDx=0;exitDy=0;" parent="1" source="_SKopQ6SyjHU9LLutcFQ-80" target="_SKopQ6SyjHU9LLutcFQ-84" edge="1">
          <mxGeometry width="50" height="50" relative="1" as="geometry">
            <mxPoint x="957" y="320" as="sourcePoint" />
            <mxPoint x="1007" y="320" as="targetPoint" />
          </mxGeometry>
        </mxCell>
        <mxCell id="_SKopQ6SyjHU9LLutcFQ-90" value="&lt;span&gt;schedDepart&lt;/span&gt;" style="ellipse;whiteSpace=wrap;html=1;align=center;" parent="1" vertex="1">
          <mxGeometry x="477" y="140" width="100" height="40" as="geometry" />
        </mxCell>
        <mxCell id="_SKopQ6SyjHU9LLutcFQ-92" value="&lt;span&gt;schedArrive&lt;/span&gt;" style="ellipse;whiteSpace=wrap;html=1;align=center;" parent="1" vertex="1">
          <mxGeometry x="357" y="200" width="100" height="40" as="geometry" />
        </mxCell>
        <mxCell id="_SKopQ6SyjHU9LLutcFQ-93" value="" style="endArrow=none;html=1;exitX=1;exitY=1;exitDx=0;exitDy=0;" parent="1" source="_SKopQ6SyjHU9LLutcFQ-92" edge="1">
          <mxGeometry width="50" height="50" relative="1" as="geometry">
            <mxPoint x="482.35533905932743" y="284.1421356237306" as="sourcePoint" />
            <mxPoint x="527" y="310" as="targetPoint" />
          </mxGeometry>
        </mxCell>
        <mxCell id="_SKopQ6SyjHU9LLutcFQ-94" value="" style="endArrow=none;html=1;exitX=0.5;exitY=1;exitDx=0;exitDy=0;" parent="1" source="_SKopQ6SyjHU9LLutcFQ-90" edge="1">
          <mxGeometry width="50" height="50" relative="1" as="geometry">
            <mxPoint x="502.35533905932743" y="244.14213562373084" as="sourcePoint" />
            <mxPoint x="527" y="310" as="targetPoint" />
          </mxGeometry>
        </mxCell>
        <mxCell id="_SKopQ6SyjHU9LLutcFQ-95" value="Terminal" style="whiteSpace=wrap;html=1;align=center;" parent="1" vertex="1">
          <mxGeometry x="737" y="410" width="100" height="40" as="geometry" />
        </mxCell>
        <mxCell id="_SKopQ6SyjHU9LLutcFQ-97" value="" style="fontSize=12;html=1;endArrow=ERoneToMany;startArrow=ERmandOne;exitX=0.5;exitY=1;exitDx=0;exitDy=0;" parent="1" source="_SKopQ6SyjHU9LLutcFQ-80" target="_SKopQ6SyjHU9LLutcFQ-95" edge="1">
          <mxGeometry width="100" height="100" relative="1" as="geometry">
            <mxPoint x="737" y="580" as="sourcePoint" />
            <mxPoint x="837" y="480" as="targetPoint" />
          </mxGeometry>
        </mxCell>
        <mxCell id="_SKopQ6SyjHU9LLutcFQ-98" value="numFoodLoc" style="ellipse;whiteSpace=wrap;html=1;align=center;" parent="1" vertex="1">
          <mxGeometry x="607" y="410" width="100" height="40" as="geometry" />
        </mxCell>
        <mxCell id="_SKopQ6SyjHU9LLutcFQ-99" value="numRetailLoc" style="ellipse;whiteSpace=wrap;html=1;align=center;" parent="1" vertex="1">
          <mxGeometry x="607" y="370" width="100" height="40" as="geometry" />
        </mxCell>
        <mxCell id="_SKopQ6SyjHU9LLutcFQ-100" value="" style="fontSize=12;html=1;endArrow=ERoneToMany;startArrow=ERmandOne;exitX=0.5;exitY=1;exitDx=0;exitDy=0;" parent="1" edge="1">
          <mxGeometry width="100" height="100" relative="1" as="geometry">
            <mxPoint x="786.5" y="450" as="sourcePoint" />
            <mxPoint x="786.5" y="510" as="targetPoint" />
          </mxGeometry>
        </mxCell>
        <mxCell id="_SKopQ6SyjHU9LLutcFQ-101" value="Gate" style="whiteSpace=wrap;html=1;align=center;" parent="1" vertex="1">
          <mxGeometry x="737" y="510" width="100" height="40" as="geometry" />
        </mxCell>
        <mxCell id="_SKopQ6SyjHU9LLutcFQ-102" value="numSeats" style="ellipse;whiteSpace=wrap;html=1;align=center;" parent="1" vertex="1">
          <mxGeometry x="797" y="570" width="100" height="40" as="geometry" />
        </mxCell>
        <mxCell id="_SKopQ6SyjHU9LLutcFQ-103" value="" style="endArrow=none;html=1;entryX=0.5;entryY=1;entryDx=0;entryDy=0;exitX=0.5;exitY=0;exitDx=0;exitDy=0;" parent="1" source="_SKopQ6SyjHU9LLutcFQ-102" target="_SKopQ6SyjHU9LLutcFQ-101" edge="1">
          <mxGeometry width="50" height="50" relative="1" as="geometry">
            <mxPoint x="607" y="430" as="sourcePoint" />
            <mxPoint x="657" y="380" as="targetPoint" />
          </mxGeometry>
        </mxCell>
        <mxCell id="_SKopQ6SyjHU9LLutcFQ-104" value="" style="endArrow=none;html=1;entryX=0;entryY=0.5;entryDx=0;entryDy=0;exitX=1;exitY=0.5;exitDx=0;exitDy=0;" parent="1" source="_SKopQ6SyjHU9LLutcFQ-98" target="_SKopQ6SyjHU9LLutcFQ-95" edge="1">
          <mxGeometry width="50" height="50" relative="1" as="geometry">
            <mxPoint x="607" y="430" as="sourcePoint" />
            <mxPoint x="657" y="380" as="targetPoint" />
          </mxGeometry>
        </mxCell>
        <mxCell id="_SKopQ6SyjHU9LLutcFQ-105" value="" style="endArrow=none;html=1;entryX=0;entryY=0.5;entryDx=0;entryDy=0;exitX=1;exitY=0.5;exitDx=0;exitDy=0;" parent="1" source="_SKopQ6SyjHU9LLutcFQ-99" target="_SKopQ6SyjHU9LLutcFQ-95" edge="1">
          <mxGeometry width="50" height="50" relative="1" as="geometry">
            <mxPoint x="607" y="430" as="sourcePoint" />
            <mxPoint x="657" y="380" as="targetPoint" />
          </mxGeometry>
        </mxCell>
        <mxCell id="_SKopQ6SyjHU9LLutcFQ-106" value="&lt;u&gt;termID&lt;/u&gt;" style="ellipse;whiteSpace=wrap;html=1;align=center;" parent="1" vertex="1">
          <mxGeometry x="607" y="450" width="100" height="40" as="geometry" />
        </mxCell>
        <mxCell id="_SKopQ6SyjHU9LLutcFQ-108" value="" style="endArrow=none;html=1;entryX=0;entryY=0.5;entryDx=0;entryDy=0;exitX=1;exitY=0.5;exitDx=0;exitDy=0;" parent="1" source="_SKopQ6SyjHU9LLutcFQ-106" target="_SKopQ6SyjHU9LLutcFQ-95" edge="1">
          <mxGeometry width="50" height="50" relative="1" as="geometry">
            <mxPoint x="717" y="400" as="sourcePoint" />
            <mxPoint x="747" y="440" as="targetPoint" />
          </mxGeometry>
        </mxCell>
        <mxCell id="_SKopQ6SyjHU9LLutcFQ-109" value="&lt;u&gt;gateID&lt;/u&gt;" style="ellipse;whiteSpace=wrap;html=1;align=center;" parent="1" vertex="1">
          <mxGeometry x="697" y="570" width="100" height="40" as="geometry" />
        </mxCell>
        <mxCell id="_SKopQ6SyjHU9LLutcFQ-110" value="" style="endArrow=none;html=1;exitX=0.5;exitY=0;exitDx=0;exitDy=0;" parent="1" source="_SKopQ6SyjHU9LLutcFQ-109" edge="1">
          <mxGeometry width="50" height="50" relative="1" as="geometry">
            <mxPoint x="857" y="580" as="sourcePoint" />
            <mxPoint x="787" y="550" as="targetPoint" />
          </mxGeometry>
        </mxCell>
        <mxCell id="_SKopQ6SyjHU9LLutcFQ-111" style="edgeStyle=none;rounded=0;orthogonalLoop=1;jettySize=auto;html=1;exitX=0.5;exitY=0;exitDx=0;exitDy=0;" parent="1" source="_SKopQ6SyjHU9LLutcFQ-90" target="_SKopQ6SyjHU9LLutcFQ-90" edge="1">
          <mxGeometry relative="1" as="geometry" />
        </mxCell>
        <mxCell id="_SKopQ6SyjHU9LLutcFQ-112" value="&lt;span&gt;arrivalTerminal&lt;/span&gt;" style="ellipse;whiteSpace=wrap;html=1;align=center;" parent="1" vertex="1">
          <mxGeometry x="567" y="210" width="100" height="40" as="geometry" />
        </mxCell>
        <mxCell id="_SKopQ6SyjHU9LLutcFQ-113" value="&lt;span&gt;arritvalGate&lt;/span&gt;" style="ellipse;whiteSpace=wrap;html=1;align=center;" parent="1" vertex="1">
          <mxGeometry x="577" y="250" width="100" height="40" as="geometry" />
        </mxCell>
        <mxCell id="_SKopQ6SyjHU9LLutcFQ-114" value="" style="endArrow=none;html=1;exitX=0;exitY=1;exitDx=0;exitDy=0;" parent="1" source="_SKopQ6SyjHU9LLutcFQ-112" edge="1">
          <mxGeometry width="50" height="50" relative="1" as="geometry">
            <mxPoint x="571.6446609406726" y="214.14213562373084" as="sourcePoint" />
            <mxPoint x="527" y="310" as="targetPoint" />
          </mxGeometry>
        </mxCell>
        <mxCell id="_SKopQ6SyjHU9LLutcFQ-115" value="" style="endArrow=none;html=1;exitX=0;exitY=1;exitDx=0;exitDy=0;entryX=0.5;entryY=0;entryDx=0;entryDy=0;" parent="1" source="_SKopQ6SyjHU9LLutcFQ-113" target="_SKopQ6SyjHU9LLutcFQ-72" edge="1">
          <mxGeometry width="50" height="50" relative="1" as="geometry">
            <mxPoint x="581.6446609406726" y="224.14213562373084" as="sourcePoint" />
            <mxPoint x="547" y="330" as="targetPoint" />
          </mxGeometry>
        </mxCell>
        <mxCell id="HTIKpestZW50oG13mV-A-2" value="" style="fontSize=12;html=1;endArrow=ERmandOne;startArrow=ERmandOne;exitX=0.5;exitY=0;exitDx=0;exitDy=0;" edge="1" parent="1" source="_SKopQ6SyjHU9LLutcFQ-71">
          <mxGeometry width="100" height="100" relative="1" as="geometry">
            <mxPoint x="470" y="390" as="sourcePoint" />
            <mxPoint x="320" y="220" as="targetPoint" />
          </mxGeometry>
        </mxCell>
        <mxCell id="HTIKpestZW50oG13mV-A-5" value="OperatesFrom" style="shape=rhombus;perimeter=rhombusPerimeter;whiteSpace=wrap;html=1;align=center;" vertex="1" parent="1">
          <mxGeometry x="612" y="310" width="90" height="40" as="geometry" />
        </mxCell>
        <mxCell id="HTIKpestZW50oG13mV-A-9" value="has" style="shape=rhombus;perimeter=rhombusPerimeter;whiteSpace=wrap;html=1;align=center;" vertex="1" parent="1">
          <mxGeometry x="749.5" y="367" width="75" height="30" as="geometry" />
        </mxCell>
        <mxCell id="HTIKpestZW50oG13mV-A-10" value="has" style="shape=rhombus;perimeter=rhombusPerimeter;whiteSpace=wrap;html=1;align=center;" vertex="1" parent="1">
          <mxGeometry x="748.5" y="467" width="75" height="30" as="geometry" />
        </mxCell>
      </root>
    </mxGraphModel>
  </diagram>
</mxfile>
